                 The Dark Knight Rises 2012 TS XViD AC3 SeeN-CM8  


Complete name    : The.Dark.Knight.Rises.2012.TS.XViD.AC3.SeeN-CM8.avi
Format           : AVI
File size        : 1.45 GiB
Duration         : 2h 35mn
Overall bit rate : 1 338 Kbps

Video:

Format           : MPEG-4 Visual
Codec ID         : XVID
Duration         : 2h 35mn
Bit rate         : 1 200 Kbps
Width            : 688 pixels
Height           : 336 pixels
Aspect ratio     : 2.048
Frame rate       : 25.000 fps
Stream size      : 1.30 GiB (90%)
Writing library  : XviD 64

Audio:

Format           : AC-3
Bit rate         : 128 Kbps
Channel(s)       : 2 channels
Sampling rate    : 48.0 KHz
Stream size      : 142 MiB (10%)

iMDB Info:
 
http://www.imdb.com/title/tt1345836/

Ratings: 8.8/10 from 283,747 users   

Eight years on, a new terrorist leader, Bane, overwhelms Gotham's finest, and the Dark Knight resurfaces to protect a city that has branded him an enemy.

Director : Christopher Nolan
Writers  : Jonathan Nolan (screenplay), Christopher Nolan (screenplay)
Stars    : Christian Bale, Tom Hardy and Anne Hathaway

Screen:
 
http://www.postimg.com/82000/photo-81162.jpg
 
http://www.postimg.com/82000/photo-81163.jpg
 
http://www.postimg.com/82000/photo-81164.jpg
 
http://www.postimg.com/82000/photo-81165.jpg